<?xml version="1.0" encoding="UTF-8" standalone="no"?>
<!-- Creator: CorelDRAW 2017 -->

<svg
   xmlns:dc="http://purl.org/dc/elements/1.1/"
   xmlns:cc="http://creativecommons.org/ns#"
   xmlns:rdf="http://www.w3.org/1999/02/22-rdf-syntax-ns#"
   xmlns:svg="http://www.w3.org/2000/svg"
   xmlns="http://www.w3.org/2000/svg"
   xmlns:sodipodi="http://sodipodi.sourceforge.net/DTD/sodipodi-0.dtd"
   xmlns:inkscape="http://www.inkscape.org/namespaces/inkscape"
   xml:space="preserve"
   width="3.59617in"
   height="3.59617in"
   version="1.1"
   style="shape-rendering:geometricPrecision; text-rendering:geometricPrecision; image-rendering:optimizeQuality; fill-rule:evenodd; clip-rule:evenodd"
   viewBox="0 0 3596.17 3596.17"
   id="svg1321"
   sodipodi:docname="aileen_a.svg"
   inkscape:version="0.92.3 (2405546, 2018-03-11)"><metadata
   id="metadata1325"><rdf:RDF><cc:Work
       rdf:about=""><dc:format>image/svg+xml</dc:format><dc:type
         rdf:resource="http://purl.org/dc/dcmitype/StillImage" /></cc:Work></rdf:RDF></metadata><sodipodi:namedview
   pagecolor="#ffffff"
   bordercolor="#666666"
   borderopacity="1"
   objecttolerance="10"
   gridtolerance="10"
   guidetolerance="10"
   inkscape:pageopacity="0"
   inkscape:pageshadow="2"
   inkscape:window-width="960"
   inkscape:window-height="1052"
   id="namedview1323"
   showgrid="false"
   inkscape:zoom="0.68359765"
   inkscape:cx="172.61616"
   inkscape:cy="172.61616"
   inkscape:window-x="960"
   inkscape:window-y="0"
   inkscape:window-maximized="0"
   inkscape:current-layer="svg1321" />
 <defs
   id="defs1314">
  <style
   type="text/css"
   id="style1312">
   <![CDATA[
    .fil1 {fill:#207E82}
    .fil0 {fill:#207E82;fill-rule:nonzero}
   ]]>
  </style>
 </defs>
 <g
   id="Layer_x0020_1"
   transform="matrix(0.59407972,0.57673437,-0.57673437,0.59407972,1458.0594,-616.43487)">
  <metadata
   id="CorelCorpID_0Corel-Layer" />
  <g
   id="_1845768417552">
   <path
   id="ColorShapes"
   class="fil0"
   d="m 1802.07,0 c 250.98,0 484.58,46.73 700.85,140.18 137.61,59.48 264.42,133 380.41,220.57 V 19.03 h 712.84 v 1775.06 131.6 1670.46 h -1794.1 c -245.61,0 -477.86,-46.72 -696.81,-140.13 C 886.37,3362.55 694.16,3233.09 528.62,3067.53 363.08,2902.04 233.6,2709.79 140.18,2490.89 46.74,2272 0,2039.69 0,1794.08 0,1543.16 46.74,1309.5 140.18,1093.29 233.6,877.03 363.07,687.47 528.62,524.62 694.16,361.75 886.37,233.63 1105.26,140.16 1324.21,46.72 1556.46,-0.02 1802.07,-0.02 Z M 2883.32,2883.38 V 1925.7 1794.1 c 0,-149.5 -28,-289.69 -84.09,-420.47 -56.05,-130.81 -133.46,-245.65 -232.26,-344.44 -98.79,-98.74 -213.57,-176.16 -344.39,-232.25 -130.81,-56.05 -270.97,-84.09 -420.51,-84.09 -149.5,0 -290.99,28.04 -424.46,84.09 -133.5,56.09 -249.63,133.52 -348.42,232.25 -98.8,98.78 -176.21,213.63 -232.25,344.44 -56.1,130.78 -84.09,270.97 -84.09,420.47 0,149.51 27.99,290.99 84.09,424.5 56.04,133.46 133.45,249.58 232.25,348.37 98.78,98.8 214.91,176.21 348.42,232.31 133.46,56.04 274.96,84.1 424.46,84.1 z"
   inkscape:connector-curvature="0"
   style="fill:#207e82;fill-rule:nonzero" />
   <path
   id="ColorShapes_0"
   class="fil1"
   d="m 1798.09,1408.81 c 214.96,0 389.28,174.32 389.28,389.29 0,214.96 -174.31,389.28 -389.28,389.28 -214.97,0 -389.29,-174.32 -389.29,-389.28 0,-214.97 174.32,-389.29 389.29,-389.29 z"
   inkscape:connector-curvature="0"
   style="fill:#207e82" />
  </g>
 </g>
</svg>