<?xml version="1.0" encoding="UTF-8"?>
<!DOCTYPE svg PUBLIC "-//W3C//DTD SVG 1.1//EN" "http://www.w3.org/Graphics/SVG/1.1/DTD/svg11.dtd">
<!-- Creator: CorelDRAW 2017 -->
<svg xmlns="http://www.w3.org/2000/svg" xml:space="preserve" width="3.59617in" height="3.59617in" version="1.1" style="shape-rendering:geometricPrecision; text-rendering:geometricPrecision; image-rendering:optimizeQuality; fill-rule:evenodd; clip-rule:evenodd"
viewBox="0 0 3596.17 3596.17"
 xmlns:xlink="http://www.w3.org/1999/xlink">
 <defs>
  <style type="text/css">
   <![CDATA[
    .fil1 {fill:#207E82}
    .fil0 {fill:#207E82;fill-rule:nonzero}
   ]]>
  </style>
 </defs>
 <g id="Layer_x0020_1">
  <metadata id="CorelCorpID_0Corel-Layer"/>
  <g id="_1845768417552">
   <path id="ColorShapes" class="fil0" d="M1802.07 0c250.98,0 484.58,46.73 700.85,140.18 137.61,59.48 264.42,133 380.41,220.57l0 -341.72 712.84 0 0 1775.06 0 131.6 0 1670.46 -1794.1 0c-245.61,0 -477.86,-46.72 -696.81,-140.13 -218.89,-93.47 -411.1,-222.93 -576.64,-388.49 -165.54,-165.49 -295.02,-357.74 -388.44,-576.64 -93.44,-218.89 -140.18,-451.2 -140.18,-696.81 0,-250.92 46.74,-484.58 140.18,-700.79 93.42,-216.26 222.89,-405.82 388.44,-568.67 165.54,-162.87 357.75,-290.99 576.64,-384.46 218.95,-93.44 451.2,-140.18 696.81,-140.18zm1081.25 2883.38l0 -957.68 0 -131.6c0,-149.5 -28,-289.69 -84.09,-420.47 -56.05,-130.81 -133.46,-245.65 -232.26,-344.44 -98.79,-98.74 -213.57,-176.16 -344.39,-232.25 -130.81,-56.05 -270.97,-84.09 -420.51,-84.09 -149.5,0 -290.99,28.04 -424.46,84.09 -133.5,56.09 -249.63,133.52 -348.42,232.25 -98.8,98.78 -176.21,213.63 -232.25,344.44 -56.1,130.78 -84.09,270.97 -84.09,420.47 0,149.51 27.99,290.99 84.09,424.5 56.04,133.46 133.45,249.58 232.25,348.37 98.78,98.8 214.91,176.21 348.42,232.31 133.46,56.04 274.96,84.1 424.46,84.1l1081.25 0z"/>
   <path id="ColorShapes_0" class="fil1" d="M1798.09 1408.81c214.96,0 389.28,174.32 389.28,389.29 0,214.96 -174.31,389.28 -389.28,389.28 -214.97,0 -389.29,-174.32 -389.29,-389.28 0,-214.97 174.32,-389.29 389.29,-389.29z"/>
  </g>
 </g>
</svg>
